<svg xmlns="http://www.w3.org/2000/svg" viewBox="0 0 24 24" fill="#ffffff">
  <path d="M6.938 4.503c.702 0 1.34.06 1.92.188.577.13 1.07.33 1.485.61.41.28.733.65.96 1.12.225.47.34 1.05.34 1.73 0 .74-.17 1.36-.507 1.86-.338.5-.837.9-1.502 1.22.906.26 1.576.72 2.022 1.37.448.66.665 1.45.665 2.36 0 .75-.13 1.39-.41 1.93-.28.55-.67 1-1.16 1.35-.48.348-1.05.6-1.67.767-.63.165-1.27.25-1.95.25H0V4.51h6.938v-.007zM6.545 10.16c.6 0 1.09-.165 1.47-.494.38-.33.57-.79.57-1.38 0-.32-.06-.59-.174-.81a1.47 1.47 0 00-.483-.54 1.94 1.94 0 00-.7-.3 3.375 3.375 0 00-.853-.1H3.38v3.63h3.166v-.007zm.2 5.98c.32 0 .623-.03.92-.1.3-.066.56-.18.79-.34.23-.16.41-.37.54-.64.13-.27.2-.6.2-1 0-.79-.22-1.35-.66-1.7-.44-.35-1.01-.53-1.71-.53H3.38v4.31h3.366zM15.357 14.235c.24.57.66.997 1.3 1.293.388.18.81.27 1.27.27.5 0 .94-.1 1.33-.31.39-.21.67-.46.83-.76h2.78c-.41 1.23-1.07 2.12-1.97 2.66-.9.54-1.99.81-3.27.81-.89 0-1.71-.14-2.44-.42-.73-.28-1.37-.68-1.89-1.2a5.51 5.51 0 01-1.23-1.87c-.3-.73-.44-1.54-.44-2.42 0-.85.15-1.65.44-2.37.3-.72.7-1.35 1.21-1.87a5.49 5.49 0 011.87-1.25c.72-.3 1.51-.45 2.36-.45.94 0 1.78.18 2.5.54.72.36 1.32.86 1.8 1.49.48.64.84 1.38 1.06 2.22.22.85.31 1.75.24 2.71h-8.27c.02.77.26 1.58.5 2.15zm4.26-4.95c-.3-.49-.74-.82-1.34-1.02a3.72 3.72 0 00-1.26-.22c-.5 0-.94.08-1.32.24-.38.16-.7.37-.95.63-.24.26-.43.54-.56.84-.13.3-.21.58-.24.85h5.94c-.09-.53-.27-.99-.57-1.49l.3.12zM15.468 4.89h5.41v1.58h-5.41V4.89z"/>
</svg>
